<svg width="1100" height="1043" viewBox="0 0 1100 1043" fill="none" xmlns="http://www.w3.org/2000/svg">
<path fill-rule="evenodd" clip-rule="evenodd" d="M534.105 56.9441C631.805 71.1571 677.119 185.583 760.425 238.569C844.314 291.926 977.779 278.897 1022.59 367.644C1067.15 455.888 995.222 557.83 969.891 653.386C947.656 737.262 936.729 824.931 883.252 893.267C828.205 963.609 754.68 1027.74 666.382 1041.22C580.98 1054.26 506.128 992.183 424.716 963.276C348.665 936.272 269.246 924.146 203.774 876.963C125.03 820.216 39.4199 758.895 11.9401 665.805C-16.6801 568.852 9.54424 462.238 54.6404 371.765C98.8889 282.993 178.191 220.371 261.103 165.93C344.702 111.038 435.137 42.5467 534.105 56.9441Z" fill="url(#paint0_radial_112_1171)"/>
<path fill-rule="evenodd" clip-rule="evenodd" d="M597.105 1.94413C694.805 16.1571 740.119 130.583 823.425 183.569C907.314 236.926 1040.78 223.897 1085.59 312.644C1130.15 400.888 1058.22 502.83 1032.89 598.386C1010.66 682.262 999.729 769.931 946.252 838.267C891.205 908.609 817.68 972.743 729.382 986.224C643.98 999.263 569.128 937.183 487.716 908.276C411.665 881.272 332.246 869.146 266.774 821.963C188.03 765.216 102.42 703.895 74.9401 610.805C46.3199 513.852 72.5442 407.238 117.64 316.765C161.889 227.993 241.191 165.371 324.103 110.93C407.702 56.0381 498.137 -12.4533 597.105 1.94413Z" fill="url(#paint1_radial_112_1171)"/>
<defs>
<radialGradient id="paint0_radial_112_1171" cx="0" cy="0" r="1" gradientUnits="userSpaceOnUse" gradientTransform="translate(518.717 -29.4658) rotate(90) scale(1280.41 1343.7)">
<stop stop-color="#4DFB7F"/>
<stop offset="0.494792" stop-color="#30BC6D"/>
<stop offset="1" stop-color="#0E8563"/>
</radialGradient>
<radialGradient id="paint1_radial_112_1171" cx="0" cy="0" r="1" gradientUnits="userSpaceOnUse" gradientTransform="translate(581.717 -84.4658) rotate(90) scale(1280.41 1343.7)">
<stop stop-color="#11F553"/>
<stop offset="0.494792" stop-color="#05E868"/>
<stop offset="1" stop-color="#05BE8A"/>
</radialGradient>
</defs>
</svg>
