<svg width="44" height="44" viewBox="0 0 44 44" fill="none" xmlns="http://www.w3.org/2000/svg">
<path d="M22 15.9C23.16 15.9 24.1 16.84 24.1 18C24.1 19.16 23.16 20.1 22 20.1C20.84 20.1 19.9 19.16 19.9 18C19.9 16.84 20.84 15.9 22 15.9ZM22 24.9C24.97 24.9 28.1 26.36 28.1 27V28.1H15.9V27C15.9 26.36 19.03 24.9 22 24.9ZM22 14C19.79 14 18 15.79 18 18C18 20.21 19.79 22 22 22C24.21 22 26 20.21 26 18C26 15.79 24.21 14 22 14ZM22 23C19.33 23 14 24.34 14 27V30H30V27C30 24.34 24.67 23 22 23Z" fill="white"/>
</svg>
