<svg width="43" height="44" viewBox="0 0 43 44" fill="none" xmlns="http://www.w3.org/2000/svg">
<path d="M15.6796 13.8204L16.2929 13.2071C16.6834 12.8166 17.3166 12.8166 17.7071 13.2071L20.2929 15.7929C20.6834 16.1834 20.6834 16.8166 20.2929 17.2071L18.5005 18.9995C18.2016 19.2984 18.1275 19.755 18.3165 20.1331C19.4093 22.3186 21.1814 24.0907 23.3669 25.1835C23.745 25.3725 24.2016 25.2984 24.5005 24.9995L26.2929 23.2071C26.6834 22.8166 27.3166 22.8166 27.7071 23.2071L30.2929 25.7929C30.6834 26.1834 30.6834 26.8166 30.2929 27.2071L29.6796 27.8204C27.5683 29.9317 24.2257 30.1693 21.837 28.3777L20.6286 27.4714C18.885 26.1638 17.3362 24.615 16.0286 22.8714L15.1223 21.663C13.3307 19.2743 13.5683 15.9317 15.6796 13.8204Z" fill="white"/>
</svg>
