<svg width="42" height="42" viewBox="0 0 42 42" fill="none" xmlns="http://www.w3.org/2000/svg">
<rect x="0.426636" y="0.919922" width="41.0667" height="41.0667" rx="20.5333" fill="white" fill-opacity="0.3"/>
<path fill-rule="evenodd" clip-rule="evenodd" d="M14.7672 13.24H27.1529C27.6032 13.24 27.9918 13.24 28.3134 13.2619C28.652 13.285 28.9907 13.3358 29.3254 13.4744C30.08 13.787 30.6796 14.3866 30.9922 15.1413C31.1308 15.4759 31.1817 15.8147 31.2048 16.1533C31.2267 16.4749 31.2267 16.8635 31.2267 17.3138V25.5928C31.2267 26.0432 31.2267 26.4318 31.2048 26.7534C31.1817 27.092 31.1308 27.4307 30.9922 27.7653C30.6796 28.52 30.08 29.1196 29.3254 29.4322C28.9907 29.5708 28.652 29.6216 28.3134 29.6447C27.9918 29.6667 27.6032 29.6667 27.1529 29.6667H14.7672C14.3168 29.6667 13.9283 29.6667 13.6066 29.6447C13.268 29.6216 12.9293 29.5708 12.5947 29.4322C11.84 29.1196 11.2404 28.52 10.9278 27.7653C10.7892 27.4307 10.7384 27.092 10.7153 26.7534C10.6933 26.4318 10.6933 26.0432 10.6934 25.5928V17.3138C10.6933 16.8635 10.6933 16.4749 10.7153 16.1533C10.7384 15.8147 10.7892 15.4759 10.9278 15.1413C11.2404 14.3866 11.84 13.787 12.5947 13.4744C12.9293 13.3358 13.268 13.285 13.6066 13.2619C13.9283 13.24 14.3168 13.24 14.7672 13.24ZM13.0729 15.5784C13.4462 15.1516 14.0949 15.1084 14.5216 15.4818L20.2842 20.5241C20.6713 20.8628 21.2493 20.8628 21.6363 20.5241L27.399 15.4818C27.8257 15.1084 28.4743 15.1516 28.8477 15.5784C29.2211 16.0051 29.1778 16.6537 28.7511 17.0271L22.9885 22.0694C21.8272 23.0855 20.0933 23.0855 18.9321 22.0694L13.1694 17.0271C12.7427 16.6537 12.6995 16.0051 13.0729 15.5784Z" fill="white"/>
</svg>
