<svg width="42" height="42" viewBox="0 0 42 42" fill="none" xmlns="http://www.w3.org/2000/svg">
<rect x="0.426636" y="0.47998" width="41.0667" height="41.0667" rx="20.5333" fill="white" fill-opacity="0.3"/>
<path fill-rule="evenodd" clip-rule="evenodd" d="M10.838 13.2127C11.0427 11.701 12.3766 10.7466 13.7631 10.7466H16.4001C17.7258 10.7466 18.9028 11.5949 19.322 12.8526L20.3994 16.0849C20.8625 17.4742 20.0449 18.9636 18.6242 19.3188C18.2768 19.4057 18.157 19.8383 18.4102 20.0915L21.8818 23.5631C22.135 23.8163 22.5676 23.6965 22.6545 23.3491C23.0096 21.9284 24.4991 21.1107 25.8884 21.5738L29.1207 22.6513C30.3784 23.0705 31.2267 24.2475 31.2267 25.5732V28.2101C31.2267 29.5966 30.2723 30.9306 28.7605 31.1353C28.0557 31.2307 27.3367 31.2799 26.6067 31.2799C17.818 31.2799 10.6934 24.1553 10.6934 15.3666C10.6934 14.6366 10.7426 13.9176 10.838 13.2127Z" fill="white"/>
</svg>
